<?xml version="1.0" encoding="UTF-8"?>
<svg width="414px" height="167px" viewBox="0 0 414 167" version="1.1" xmlns="http://www.w3.org/2000/svg" xmlns:xlink="http://www.w3.org/1999/xlink">
    <title>MacBook Pro 16"@2x</title>
    <g id="MacBook-Pro-16&quot;" stroke="none" fill="none" fill-rule="evenodd">
        <path d="M43,106 L25,106 L25,19 L63.999,18.999832 L63.9994844,18.976832 C79.2023609,19.5745706 91.3407709,31.8819102 91.3407709,46.9768531 C91.3407709,57.497827 85.4440477,66.6646099 76.7229427,71.4563077 L93.4078692,104 L72.8935337,104 L58.639,74.749832 L43,74.749832 L43,106 Z M64.0005439,32.9872792 L64,33 L43,32.999832 L43,60.749832 L64,60.75 L64,60.797832 L64.3197001,60.7569774 C71.1255824,59.8053765 76.3634045,53.9606548 76.3634045,46.8925741 C76.3634045,39.7143998 70.9611412,33.7979917 64.0005439,32.9872792 Z M343.249688,17 C367.411976,17 386.99938,36.4756134 386.99938,60.5 C386.99938,84.5243866 367.411976,104 343.249688,104 L343,103.998 L316,104 L316,86.75 L342.999,86.75 C357.359093,86.7485714 368.99969,75.1079749 368.99969,60.7485714 C368.99969,46.3895019 357.359635,34.7491129 343.000692,34.7485714 L316,34.75 L316,17 L343.249688,17 Z M214,74 L214,104 L196,104 L196,17 L233,17 L233.000019,17.0231469 C248.202646,17.6313376 260.340771,30.1481633 260.340771,45.5 C260.340771,60.8518367 248.202646,73.3686624 233.000019,73.9768531 L233,74 L214,74 Z M214,56.3 L232.999,56.3 C238.298795,55.5031352 242.363405,50.9333807 242.363405,45.4142857 C242.363405,39.8951908 238.298795,35.3254362 232.999714,34.5351607 L232.999,34.5 L214,34.5 L214,56.3 Z M277,17 L295,17 L295,104 L277,104 Z M152.211025,17 L182.407869,104 L163.550295,104 L142.105156,34.247 L120.66073,104 L101.803156,104 L132,17 L152.211025,17 Z" id="Combined-Shape" fill="#3F3F3F"></path>
        <g id="INSTITUTE" stroke-width="1" transform="translate(22, 118)" fill="#3F3F3F">
            <polygon id="Path" fill-rule="nonzero" points="3.6484375 30 8.3671875 30 8.3671875 7.453125 3.6484375 7.453125"></polygon>
            <polygon id="Path" fill-rule="nonzero" points="37.8359375 30 42.3515625 30 42.3515625 15.578125 42.6015625 15.578125 53.0390625 30 56.9453125 30 56.9453125 7.453125 52.4296875 7.453125 52.4296875 21.8125 52.1796875 21.8125 41.7734375 7.453125 37.8359375 7.453125"></polygon>
            <path d="M94.4765625,30.578125 C100.101562,30.578125 103.570312,27.75 103.570312,23.28125 L103.570312,23.265625 C103.570312,19.75 101.492187,17.84375 96.7265625,16.859375 L94.3359375,16.375 C91.6796875,15.828125 90.5859375,14.953125 90.5859375,13.484375 L90.5859375,13.46875 C90.5859375,11.78125 92.1328125,10.71875 94.4609375,10.703125 C96.8359375,10.703125 98.3984375,11.828125 98.6640625,13.4375 L98.6953125,13.625 L103.132812,13.625 L103.117187,13.421875 C102.820312,9.65625 99.7265625,6.875 94.4609375,6.875 C89.4609375,6.875 85.8671875,9.640625 85.8671875,13.828125 L85.8671875,13.84375 C85.8671875,17.265625 87.8828125,19.453125 92.5703125,20.40625 L94.9453125,20.890625 C97.7421875,21.46875 98.8515625,22.296875 98.8515625,23.78125 L98.8515625,23.796875 C98.8515625,25.53125 97.1171875,26.734375 94.6015625,26.734375 C91.9609375,26.734375 90.1328125,25.59375 89.9609375,23.90625 L89.9453125,23.75 L85.3984375,23.75 L85.4140625,24 C85.6796875,28 89.0859375,30.578125 94.4765625,30.578125 Z" id="Path" fill-rule="nonzero"></path>
            <polygon id="Path" fill-rule="nonzero" points="137.492188 30 142.210938 30 142.210938 11.34375 148.976562 11.34375 148.976562 7.453125 130.726562 7.453125 130.726562 11.34375 137.492188 11.34375"></polygon>
            <polygon id="Path" fill-rule="nonzero" points="177.148438 30 181.867188 30 181.867188 7.453125 177.148438 7.453125"></polygon>
            <polygon id="Path" fill-rule="nonzero" points="216.804688 30 221.523438 30 221.523438 11.34375 228.289062 11.34375 228.289062 7.453125 210.039062 7.453125 210.039062 11.34375 216.804688 11.34375"></polygon>
            <path d="M265.898438,30.578125 C271.710938,30.578125 275.335938,27.21875 275.335938,22.21875 L275.335938,7.453125 L270.617188,7.453125 L270.617188,21.796875 C270.617188,24.71875 268.929688,26.578125 265.898438,26.578125 C262.867188,26.578125 261.164062,24.71875 261.164062,21.796875 L261.164062,7.453125 L256.445312,7.453125 L256.445312,22.21875 C256.445312,27.234375 260.117188,30.578125 265.898438,30.578125 Z" id="Path" fill-rule="nonzero"></path>
            <polygon id="Path" fill-rule="nonzero" points="310.257812 30 314.976562 30 314.976562 11.34375 321.742188 11.34375 321.742188 7.453125 303.492188 7.453125 303.492188 11.34375 310.257812 11.34375"></polygon>
            <polygon id="Path" fill-rule="nonzero" points="349.914062 30 364.851562 30 364.851562 26.109375 354.632812 26.109375 354.632812 20.40625 364.273438 20.40625 364.273438 16.78125 354.632812 16.78125 354.632812 11.34375 364.851562 11.34375 364.851562 7.453125 349.914062 7.453125"></polygon>
        </g>
    </g>
</svg>