<?xml version="1.0" encoding="UTF-8"?>
<svg width="1276px" height="285px" viewBox="0 0 1276 285" version="1.1" xmlns="http://www.w3.org/2000/svg" xmlns:xlink="http://www.w3.org/1999/xlink">
    <title>MacBook Pro 16"@2x</title>
    <g id="MacBook-Pro-16&quot;" stroke="none" fill="none">
        <rect id="Rectangle" stroke="#000000" stroke-width="15" x="41" y="28" width="475" height="134" rx="15"></rect>
        <path d="M351,21 C359.284271,21 366,27.7157288 366,36 L366,154 C366,162.284271 359.284271,169 351,169 L56,169 C47.7157288,169 41,162.284271 41,154 L41,36 C41,27.7157288 47.7157288,21 56,21 L351,21 Z M169.39925,52.12 C164.319583,52.12 159.883333,53.0565417 156.0905,54.929625 C152.297667,56.8027083 149.37575,59.4475417 147.32475,62.864125 C145.27375,66.2807083 144.24825,70.3071667 144.24825,74.9435 C144.24825,80.6065 145.96325,85.491625 149.39325,89.598875 C152.82325,93.706125 157.485833,96.5064167 163.381,97.99975 L174.371,100.81725 C177.263167,101.53825 179.466417,102.937375 180.98075,105.014625 C182.495083,107.091875 183.25225,109.489083 183.25225,112.20625 C183.25225,115.707417 182.078292,118.529 179.730375,120.671 C177.382458,122.813 174.177917,123.884 170.11675,123.884 C165.949417,123.884 162.617417,122.814458 160.12075,120.675375 C157.624083,118.536292 156.37575,115.626333 156.37575,111.9455 L142.626,111.9455 C142.626,116.885167 143.755625,121.172083 146.014875,124.80625 C148.274125,128.440417 151.472833,131.234583 155.611,133.18875 C159.749167,135.142917 164.584417,136.12 170.11675,136.12 C175.58725,136.12 180.338792,135.138542 184.371375,133.175625 C188.403958,131.212708 191.512542,128.432833 193.697125,124.836 C195.881708,121.239167 196.974,117.02925 196.974,112.20625 C196.974,105.964583 195.243542,100.597042 191.782625,96.103625 C188.321708,91.6102083 183.581833,88.6384167 177.563,87.18825 L166.237,84.32525 C163.5875,83.6345833 161.5365,82.4545 160.084,80.785 C158.6315,79.1155 157.90525,77.02775 157.90525,74.52175 C157.90525,71.4440833 158.940667,68.9585 161.0115,67.065 C163.082333,65.1715 165.87825,64.22475 169.39925,64.22475 C172.963417,64.22475 175.81825,65.1822917 177.96375,67.097375 C180.10925,69.0124583 181.182,71.57475 181.182,74.78425 L194.93,74.78425 C194.93,70.2225833 193.867458,66.2413333 191.742375,62.8405 C189.617292,59.4396667 186.650458,56.8027083 182.841875,54.929625 C179.033292,53.0565417 174.552417,52.12 169.39925,52.12 Z M103.4365,53.24 L77.64675,53.24 L77.64675,135 L91.4805,135 L91.4805,102.50775 L101.69175,102.50775 L116.06975,135 L131.35075,135 L115.38375,100.51625 C119.91275,98.7744167 123.5195,95.8592083 126.204,91.770625 C128.8885,87.6820417 130.23075,82.9404167 130.23075,77.54575 C130.23075,72.6235833 129.124458,68.3422083 126.911875,64.701625 C124.699292,61.0610417 121.588958,58.240625 117.580875,56.240375 C113.572792,54.240125 108.858,53.24 103.4365,53.24 Z M260.478,53.24 L213.522,53.24 L213.522,65.896 L229.9475,65.896 L229.9475,122.344 L213.522,122.344 L213.522,135 L260.478,135 L260.478,122.344 L244.0525,122.344 L244.0525,65.896 L260.478,65.896 L260.478,53.24 Z M294.87075,53.24 L276.69875,53.24 L276.69875,135 L289.71875,135 L289.71875,100.6195 C289.71875,95.2108333 289.593917,90.0215 289.34425,85.0515 C289.094583,80.0815 288.770542,75.418625 288.372125,71.062875 C287.973708,66.707125 287.528333,62.8311667 287.036,59.435 L298.18525,99.53625 L309.674,99.53625 L321.1855,58.427 C320.799333,62.2653333 320.407042,66.5674167 320.008625,71.33325 C319.610208,76.0990833 319.289375,80.9947083 319.046125,86.020125 C318.802875,91.0455417 318.68125,95.912 318.68125,100.6195 L318.68125,135 L331.70125,135 L331.70125,53.24 L313.398,53.24 L304.04075,88.3695 L294.87075,53.24 Z M103.4365,65.52325 C107.355333,65.52325 110.442333,66.6333333 112.6975,68.8535 C114.952667,71.0736667 116.08025,74.1239167 116.08025,78.00425 C116.08025,81.7679167 114.952667,84.7455417 112.6975,86.937125 C110.442333,89.1287083 107.355333,90.2245 103.4365,90.2245 L91.4805,90.2245 L91.4805,65.52325 Z" id="Combined-Shape" fill="#000000" fill-rule="evenodd"></path>
        <text id="RSIM" font-family="JetBrainsMono-Regular_Bold, JetBrains Mono" font-size="112" font-weight="bold" fill="#FFFFFF" fill-opacity="0">
            <tspan x="69" y="135">RSIM</tspan>
        </text>
        <text id="REFLECTIVE-SELF-IMAG" font-family="JetBrainsMono-Italic_ExtraBold-Italic, JetBrains Mono" font-size="61" font-style="italic" font-weight="700" fill="#000000">
            <tspan x="41" y="245">REFLECTIVE SELF-IMAGING MODULE</tspan>
        </text>
        <g id="REFLECTIVE-SELF-IMAG" stroke-width="1" fill-rule="evenodd" transform="translate(41, 183)" fill="#000000">
            <path d="M1.342,62 L8.418,17.47 L22.692,17.47 C25.7826667,17.47 28.3955,18.0393333 30.5305,19.178 C32.6655,20.3166667 34.2311667,21.9026667 35.2275,23.936 C36.2238333,25.9693333 36.4983333,28.328 36.051,31.012 C35.6036667,33.9806667 34.526,36.5731667 32.818,38.7895 C31.11,41.0058333 28.9343333,42.6426667 26.291,43.7 L31.781,62 L22.143,62 L17.629,45.164 L12.993,45.164 L10.309,62 L1.342,62 Z M14.213,37.234 L19.52,37.234 C21.5533333,37.234 23.2105,36.7256667 24.4915,35.709 C25.7725,34.6923333 26.5553333,33.269 26.84,31.439 C27.1653333,29.5276667 26.8501667,28.0433333 25.8945,26.986 C24.9388333,25.9286667 23.4443333,25.4 21.411,25.4 L16.104,25.4 L14.213,37.234 Z" id="Shape" fill-rule="nonzero"></path>
            <polygon id="Path" fill-rule="nonzero" points="38.796 62 45.872 17.47 73.322 17.47 72.041 25.278 53.558 25.278 51.972 35.282 68.32 35.282 67.1 43.09 50.752 43.09 48.983 54.192 67.466 54.192 66.246 62"></polygon>
            <polygon id="Path" fill-rule="nonzero" points="74.786 62 81.862 17.47 110.532 17.47 109.129 26.01 89.487 26.01 87.962 35.892 106.018 35.892 104.676 44.432 86.742 44.432 83.936 62"></polygon>
            <polygon id="Path" fill-rule="nonzero" points="114.131 62 121.207 17.47 130.357 17.47 124.562 53.765 142.557 53.765 141.276 62"></polygon>
            <polygon id="Path" fill-rule="nonzero" points="148.596 62 155.672 17.47 183.122 17.47 181.841 25.278 163.358 25.278 161.772 35.282 178.12 35.282 176.9 43.09 160.552 43.09 158.783 54.192 177.266 54.192 176.046 62"></polygon>
            <path d="M198.982,62.61 C196.013333,62.61 193.492,62.0508333 191.418,60.9325 C189.344,59.8141667 187.859667,58.2485 186.965,56.2355 C186.070333,54.2225 185.826333,51.874 186.233,49.19 L189.222,30.28 C189.913333,26.01 191.743333,22.7058333 194.712,20.3675 C197.680667,18.0291667 201.523667,16.86 206.241,16.86 C209.169,16.86 211.649667,17.4293333 213.683,18.568 C215.716333,19.7066667 217.210833,21.2825 218.1665,23.2955 C219.122167,25.3085 219.396667,27.6366667 218.99,30.28 L209.84,30.28 C210.165333,28.4906667 209.901,27.1283333 209.047,26.193 C208.193,25.2576667 206.851,24.79 205.021,24.79 C203.191,24.79 201.706667,25.2576667 200.568,26.193 C199.429333,27.1283333 198.697333,28.4906667 198.372,30.28 L195.383,49.19 C195.098333,50.9386667 195.383,52.2908333 196.237,53.2465 C197.091,54.2021667 198.433,54.68 200.263,54.68 C202.093,54.68 203.577333,54.2021667 204.716,53.2465 C205.854667,52.2908333 206.566333,50.9386667 206.851,49.19 L216.001,49.19 C215.350333,53.46 213.5305,56.7641667 210.5415,59.1025 C207.5525,61.4408333 203.699333,62.61 198.982,62.61 Z" id="Path" fill-rule="nonzero"></path>
            <polygon id="Path" fill-rule="nonzero" points="230.641 62 236.314 26.01 225.029 26.01 226.432 17.47 258.152 17.47 256.749 26.01 245.464 26.01 239.791 62"></polygon>
            <polygon id="Path" fill-rule="nonzero" points="258.396 62 259.677 54.07 268.522 54.07 273.036 25.4 264.191 25.4 265.472 17.47 292.312 17.47 291.031 25.4 282.186 25.4 277.672 54.07 286.517 54.07 285.236 62"></polygon>
            <path d="M302.682,62 L298.717,17.47 L307.989,17.47 L309.697,45.591 C309.778333,46.567 309.839333,47.8175 309.88,49.3425 C309.920667,50.8675 309.961333,52.1586667 310.002,53.216 C310.327333,52.1586667 310.723833,50.8675 311.1915,49.3425 C311.659167,47.8175 312.076,46.5466667 312.442,45.53 L322.873,17.47 L332.267,17.47 L314.272,62 L302.682,62 Z" id="Path" fill-rule="nonzero"></path>
            <polygon id="Path" fill-rule="nonzero" points="331.596 62 338.672 17.47 366.122 17.47 364.841 25.278 346.358 25.278 344.772 35.282 361.12 35.282 359.9 43.09 343.552 43.09 341.783 54.192 360.266 54.192 359.046 62"></polygon>
            <path d="M418.216,62.61 C415.166,62.61 412.563333,62.0508333 410.408,60.9325 C408.252667,59.8141667 406.676833,58.2383333 405.6805,56.205 C404.684167,54.1716667 404.389333,51.8333333 404.796,49.19 L413.702,49.19 C413.458,50.8573333 413.8545,52.1891667 414.8915,53.1855 C415.9285,54.1818333 417.463667,54.68 419.497,54.68 C421.408333,54.68 423.035,54.1818333 424.377,53.1855 C425.719,52.1891667 426.491667,50.9386667 426.695,49.434 C426.898333,48.1733333 426.715333,47.0448333 426.146,46.0485 C425.576667,45.0521667 424.600667,44.3913333 423.218,44.066 L417.972,42.785 C414.596667,41.9716667 412.065167,40.3958333 410.3775,38.0575 C408.689833,35.7191667 408.110333,32.9233333 408.639,29.67 C409.330333,25.6033333 411.1095,22.4516667 413.9765,20.215 C416.8435,17.9783333 420.554333,16.86 425.109,16.86 C428.037,16.86 430.5075,17.3988333 432.5205,18.4765 C434.5335,19.5541667 436.007667,21.0486667 436.943,22.96 C437.878333,24.8713333 438.142667,27.0876667 437.736,29.609 L428.83,29.609 C429.074,28.0636667 428.758833,26.8538333 427.8845,25.9795 C427.010167,25.1051667 425.678333,24.668 423.889,24.668 C422.140333,24.668 420.706833,25.095 419.5885,25.949 C418.470167,26.803 417.809333,27.9416667 417.606,29.365 C417.443333,30.5443333 417.667,31.5 418.277,32.232 C418.887,32.964 419.822333,33.4926667 421.083,33.818 L426.512,35.099 C429.887333,35.8716667 432.3985,37.5491667 434.0455,40.1315 C435.6925,42.7138333 436.231333,45.8146667 435.662,49.434 C435.011333,53.6226667 433.161,56.8658333 430.111,59.1635 C427.061,61.4611667 423.096,62.61 418.216,62.61 Z" id="Path" fill-rule="nonzero"></path>
            <polygon id="Path" fill-rule="nonzero" points="441.396 62 448.472 17.47 475.922 17.47 474.641 25.278 456.158 25.278 454.572 35.282 470.92 35.282 469.7 43.09 453.352 43.09 451.583 54.192 470.066 54.192 468.846 62"></polygon>
            <polygon id="Path" fill-rule="nonzero" points="480.131 62 487.207 17.47 496.357 17.47 490.562 53.765 508.557 53.765 507.276 62"></polygon>
            <polygon id="Path" fill-rule="nonzero" points="513.986 62 521.062 17.47 549.732 17.47 548.329 26.01 528.687 26.01 527.162 35.892 545.218 35.892 543.876 44.432 525.942 44.432 523.136 62"></polygon>
            <polygon id="Path" fill-rule="nonzero" points="556.442 46.14 557.784 37.6 579.134 37.6 577.792 46.14"></polygon>
            <polygon id="Path" fill-rule="nonzero" points="587.796 62 589.077 54.07 597.922 54.07 602.436 25.4 593.591 25.4 594.872 17.47 621.712 17.47 620.431 25.4 611.586 25.4 607.072 54.07 615.917 54.07 614.636 62"></polygon>
            <path d="M622.078,62 L629.154,17.47 L640.073,17.47 L641.537,36.502 L649.101,17.47 L660.63,17.47 L653.554,62 L645.197,62 L647.881,44.92 C648.369,41.9513333 648.928167,39.0436667 649.5585,36.197 C650.188833,33.3503333 650.849667,30.646 651.541,28.084 C652.232333,25.522 652.862667,23.204 653.432,21.13 L644.343,43.09 L637.023,43.09 L634.949,21.679 C634.949,23.4276667 634.898167,25.522 634.7965,27.962 C634.694833,30.402 634.511833,33.0555 634.2475,35.9225 C633.983167,38.7895 633.607,41.7886667 633.119,44.92 L630.435,62 L622.078,62 Z" id="Path" fill-rule="nonzero"></path>
            <path d="M657.641,62 L675.636,17.47 L687.226,17.47 L691.191,62 L682.102,62 L681.553,51.935 L670.939,51.935 L667.218,62 L657.641,62 Z M673.623,44.615 L681.126,44.615 L680.699,33.879 C680.658333,32.3336667 680.587167,30.7985 680.4855,29.2735 C680.383833,27.7485 680.312667,26.559 680.272,25.705 C679.987333,26.559 679.611167,27.7383333 679.1435,29.243 C678.675833,30.7476667 678.157333,32.2726667 677.588,33.818 L673.623,44.615 Z" id="Shape" fill-rule="nonzero"></path>
            <path d="M711.138,62.61 C708.169333,62.61 705.648,62.0508333 703.574,60.9325 C701.5,59.8141667 700.015667,58.2485 699.121,56.2355 C698.226333,54.2225 697.982333,51.874 698.389,49.19 L701.378,30.28 C702.069333,26.01 703.899333,22.7058333 706.868,20.3675 C709.836667,18.0291667 713.679667,16.86 718.397,16.86 C721.325,16.86 723.805667,17.4293333 725.839,18.568 C727.872333,19.7066667 729.366833,21.2825 730.3225,23.2955 C731.278167,25.3085 731.552667,27.6366667 731.146,30.28 L721.996,30.28 C722.321333,28.4906667 722.057,27.1283333 721.203,26.193 C720.349,25.2576667 719.007,24.79 717.177,24.79 C715.347,24.79 713.862667,25.2576667 712.724,26.193 C711.585333,27.1283333 710.853333,28.4906667 710.528,30.28 L707.539,49.19 C707.254333,50.9386667 707.539,52.2908333 708.393,53.2465 C709.247,54.2021667 710.589,54.68 712.419,54.68 C714.249,54.68 715.733333,54.2021667 716.872,53.2465 C718.010667,52.2908333 718.722333,50.9386667 719.007,49.19 L719.678,45.042 L713.09,45.042 L714.31,37.295 L730.048,37.295 L728.157,49.19 C727.506333,53.46 725.6865,56.7641667 722.6975,59.1025 C719.7085,61.4408333 715.855333,62.61 711.138,62.61 Z" id="Path" fill-rule="nonzero"></path>
            <polygon id="Path" fill-rule="nonzero" points="734.196 62 735.477 54.07 744.322 54.07 748.836 25.4 739.991 25.4 741.272 17.47 768.112 17.47 766.831 25.4 757.986 25.4 753.472 54.07 762.317 54.07 761.036 62"></polygon>
            <path d="M769.576,62 L776.652,17.47 L787.205,17.47 L793.366,51.935 C793.488,50.4303333 793.630333,48.6918333 793.793,46.7195 C793.955667,44.7471667 794.138667,42.7748333 794.342,40.8025 C794.545333,38.8301667 794.748667,37.1526667 794.952,35.77 L797.88,17.47 L805.932,17.47 L798.856,62 L788.303,62 L782.203,27.535 C782.121667,28.8363333 782.009833,30.3816667 781.8675,32.171 C781.725167,33.9603333 781.5625,35.77 781.3795,37.6 C781.1965,39.43 780.983,41.0566667 780.739,42.48 L777.628,62 L769.576,62 Z" id="Path" fill-rule="nonzero"></path>
            <path d="M820.938,62.61 C817.969333,62.61 815.448,62.0508333 813.374,60.9325 C811.3,59.8141667 809.815667,58.2485 808.921,56.2355 C808.026333,54.2225 807.782333,51.874 808.189,49.19 L811.178,30.28 C811.869333,26.01 813.699333,22.7058333 816.668,20.3675 C819.636667,18.0291667 823.479667,16.86 828.197,16.86 C831.125,16.86 833.605667,17.4293333 835.639,18.568 C837.672333,19.7066667 839.166833,21.2825 840.1225,23.2955 C841.078167,25.3085 841.352667,27.6366667 840.946,30.28 L831.796,30.28 C832.121333,28.4906667 831.857,27.1283333 831.003,26.193 C830.149,25.2576667 828.807,24.79 826.977,24.79 C825.147,24.79 823.662667,25.2576667 822.524,26.193 C821.385333,27.1283333 820.653333,28.4906667 820.328,30.28 L817.339,49.19 C817.054333,50.9386667 817.339,52.2908333 818.193,53.2465 C819.047,54.2021667 820.389,54.68 822.219,54.68 C824.049,54.68 825.533333,54.2021667 826.672,53.2465 C827.810667,52.2908333 828.522333,50.9386667 828.807,49.19 L829.478,45.042 L822.89,45.042 L824.11,37.295 L839.848,37.295 L837.957,49.19 C837.306333,53.46 835.4865,56.7641667 832.4975,59.1025 C829.5085,61.4408333 825.655333,62.61 820.938,62.61 Z" id="Path" fill-rule="nonzero"></path>
            <path d="M878.278,62 L885.354,17.47 L896.273,17.47 L897.737,36.502 L905.301,17.47 L916.83,17.47 L909.754,62 L901.397,62 L904.081,44.92 C904.569,41.9513333 905.128167,39.0436667 905.7585,36.197 C906.388833,33.3503333 907.049667,30.646 907.741,28.084 C908.432333,25.522 909.062667,23.204 909.632,21.13 L900.543,43.09 L893.223,43.09 L891.149,21.679 C891.149,23.4276667 891.098167,25.522 890.9965,27.962 C890.894833,30.402 890.711833,33.0555 890.4475,35.9225 C890.183167,38.7895 889.807,41.7886667 889.319,44.92 L886.635,62 L878.278,62 Z" id="Path" fill-rule="nonzero"></path>
            <path d="M930.494,62.61 C927.525333,62.61 925.0345,62.0508333 923.0215,60.9325 C921.0085,59.8141667 919.564833,58.2485 918.6905,56.2355 C917.816167,54.2225 917.582333,51.874 917.989,49.19 L920.978,30.28 C921.669333,26.01 923.468833,22.7058333 926.3765,20.3675 C929.284167,18.0291667 933.076333,16.86 937.753,16.86 C940.762333,16.86 943.2735,17.4191667 945.2865,18.5375 C947.2995,19.6558333 948.743167,21.2215 949.6175,23.2345 C950.491833,25.2475 950.705333,27.596 950.258,30.28 L947.269,49.19 C946.618333,53.46 944.829,56.7641667 941.901,59.1025 C938.973,61.4408333 935.170667,62.61 930.494,62.61 Z M931.775,54.68 C933.605,54.68 935.048667,54.2021667 936.106,53.2465 C937.163333,52.2908333 937.834333,50.9386667 938.119,49.19 L941.108,30.28 C941.392667,28.4906667 941.169,27.1283333 940.437,26.193 C939.705,25.2576667 938.403667,24.79 936.533,24.79 C934.662333,24.79 933.198333,25.2576667 932.141,26.193 C931.083667,27.1283333 930.412667,28.4906667 930.128,30.28 L927.139,49.19 C926.854333,50.9386667 927.098333,52.2908333 927.871,53.2465 C928.643667,54.2021667 929.945,54.68 931.775,54.68 Z" id="Shape" fill-rule="nonzero"></path>
            <path d="M952.759,62 L959.835,17.47 L974.292,17.47 C977.382667,17.47 979.985333,18.0596667 982.1,19.239 C984.214667,20.4183333 985.739667,22.0755 986.675,24.2105 C987.610333,26.3455 987.854333,28.8566667 987.407,31.744 L984.845,47.665 C984.397667,50.5116667 983.360667,53.0126667 981.734,55.168 C980.107333,57.3233333 978.053667,59.0008333 975.573,60.2005 C973.092333,61.4001667 970.306667,62 967.216,62 L952.759,62 Z M963.251,53.46 L968.558,53.46 C970.428667,53.46 972.014667,52.9313333 973.316,51.874 C974.617333,50.8166667 975.410333,49.4136667 975.695,47.665 L978.257,31.744 C978.501,30.036 978.135,28.6533333 977.159,27.596 C976.183,26.5386667 974.759667,26.01 972.889,26.01 L967.582,26.01 L963.251,53.46 Z" id="Shape" fill-rule="nonzero"></path>
            <path d="M1003.694,62.61 C999.18,62.61 995.814833,61.39 993.5985,58.95 C991.382167,56.51 990.599333,53.1753333 991.25,48.946 L996.252,17.47 L1005.402,17.47 L1000.4,48.885 C1000.11533,50.7556667 1000.3695,52.1891667 1001.1625,53.1855 C1001.9555,54.1818333 1003.22633,54.68 1004.975,54.68 C1006.683,54.68 1008.10633,54.1818333 1009.245,53.1855 C1010.38367,52.1891667 1011.09533,50.7556667 1011.38,48.885 L1016.382,17.47 L1025.532,17.47 L1020.53,48.946 C1020.08267,51.752 1019.10667,54.1818333 1017.602,56.2355 C1016.09733,58.2891667 1014.1555,59.865 1011.7765,60.963 C1009.3975,62.061 1006.70333,62.61 1003.694,62.61 Z" id="Path" fill-rule="nonzero"></path>
            <polygon id="Path" fill-rule="nonzero" points="1029.131 62 1036.207 17.47 1045.357 17.47 1039.562 53.765 1057.557 53.765 1056.276 62"></polygon>
            <polygon id="Path" fill-rule="nonzero" points="1063.596 62 1070.672 17.47 1098.122 17.47 1096.841 25.278 1078.358 25.278 1076.772 35.282 1093.12 35.282 1091.9 43.09 1075.552 43.09 1073.783 54.192 1092.266 54.192 1091.046 62"></polygon>
        </g>
        <g id="μ" stroke-width="1" fill-rule="evenodd" transform="translate(400.4609, 12)" fill="#000000">
            <path d="M0,127.234375 L22.421875,127.234375 L26.8515625,106.507812 L27.9453125,106.507812 C28.8203125,107.492187 30.734375,108.53125 33.7421875,108.53125 C43.9140625,108.53125 46.9765625,99.9453125 48.3984375,95.625 L49.546875,95.625 L49.546875,95.953125 C49.546875,103.828125 55.3984375,107.546875 65.0234375,107.546875 C68.4140625,107.546875 72.953125,107.164062 74.8671875,106.671875 L78.203125,91.03125 C77.546875,91.1953125 75.6328125,91.4140625 74.8671875,91.4140625 C71.9140625,91.4140625 70.6015625,90.265625 70.6015625,87.75 C70.6015625,86.984375 70.65625,86.109375 70.9296875,84.90625 L79.296875,45.53125 L56.875,45.53125 L49.546875,80.0390625 C48.125,86.65625 44.953125,90.375 39.6484375,90.375 C34.671875,90.375 32.375,87.3125 32.375,82.0625 C32.375,80.8046875 32.5390625,79.4375 32.8671875,77.90625 L39.7578125,45.53125 L17.28125,45.53125 L0,127.234375 Z" id="Path" fill-rule="nonzero"></path>
        </g>
    </g>
</svg>